<svg width="683" height="100" viewBox="0 0 683 100" fill="none" xmlns="http://www.w3.org/2000/svg">
<path d="M233.193 66.0445C231.691 25.0256 217.98 -14.5909 216.29 -19.2988H215.1C211.595 5.09214 211.407 37.9473 211.094 76.0112C211.094 79.5672 211.031 83.2234 211.031 86.8294C222.425 78.5155 231.941 67.4969 233.193 66.0445ZM227.121 49.1161H228.623V53.1228H227.121V49.1161ZM223.865 49.1161H225.368V53.1228H223.865V49.1161ZM220.61 33.1893H222.112V37.1961H220.61V33.1893ZM220.61 39.6001H222.112V43.6068H220.61V39.6001ZM220.61 49.1161H222.112V53.1228H220.61V49.1161ZM217.417 7.49618H218.919V11.5029H217.417V7.49618ZM217.417 12.8051H218.919V16.8118H217.417V12.8051ZM217.417 17.7634H218.919V21.7702H217.417V17.7634ZM217.229 33.1893V37.1961H215.727V33.1893H217.229ZM214.224 12.8051H215.727V16.8118H214.224V12.8051ZM214.975 55.5769H216.478V59.5837H214.975V55.5769ZM238.327 11.8034C243.774 11.6031 248.719 11.1022 248.719 9.85013C248.719 7.94694 237.513 7.7466 230.126 7.79668C227.183 -1.56905 224.053 -10.3338 220.923 -20H217.793C218.919 -16.9449 233.319 23.9238 234.884 66.1948V66.3951L234.759 66.5453C234.633 66.6956 223.74 79.6674 210.781 88.7326L210.342 89.0331C210.28 92.7894 210.28 96.5958 210.217 100.402H241.958C241.958 76.5121 240.581 58.3816 238.39 43.5067V11.8034H238.327ZM233.193 28.6317H231.691V24.6249H233.193V28.6317ZM233.193 21.7702H231.691V17.7634H233.193V21.7702Z" fill="white"/>
<path d="M413.868 82.6084H411.864V69.0356H413.868V82.6084ZM435.529 83.7604H437.532V99.9375H411.927V83.7604H413.93V99.9375H415.245V83.7604H434.214V99.9375H435.529V83.7604ZM431.209 92.3748C431.209 89.52 428.329 87.1661 424.698 87.1661C421.13 87.1661 418.187 89.4699 418.187 92.3748V99.8874H419.44V92.4249C419.44 90.121 421.756 88.2679 424.636 88.2679C427.516 88.2679 429.832 90.121 429.832 92.4249V99.8874H431.084V92.3748H431.209ZM434.214 67.8837V67.8336C434.214 63.6265 429.957 60.2208 424.698 60.2208C419.439 60.2208 415.182 63.6265 415.182 67.8336V67.8837H418.876C418.876 67.8336 418.876 67.7334 418.876 67.6834C418.876 65.1291 421.443 63.0756 424.636 63.0756C427.829 63.0756 430.395 65.1291 430.395 67.6834C430.395 67.7334 430.395 67.8336 430.395 67.8837H434.214ZM415.182 82.6084H418.563V76.2978C418.563 75.6467 419.189 75.1459 420.003 75.1459C420.817 75.1459 421.443 75.6467 421.443 76.2978V82.6084H423.258V76.2978C423.258 75.6467 423.884 75.1459 424.698 75.1459C425.512 75.1459 426.138 75.6467 426.138 76.2978V82.6084H427.954V76.2978C427.954 75.6467 428.58 75.1459 429.394 75.1459C430.208 75.1459 430.834 75.6467 430.834 76.2978V82.6084H434.214V69.0356H430.27C429.582 70.9388 427.328 72.3412 424.761 72.3412C422.132 72.3412 419.94 70.9388 419.252 69.0356H415.308V82.6084H415.182ZM432.962 58.2175C430.771 56.8652 427.891 56.0638 424.698 56.0638C421.505 56.0638 418.626 56.8652 416.434 58.2175H411.927L424.636 40.7882L437.532 58.2175H432.962ZM424.698 49.5529C423.008 49.5529 421.693 50.6548 421.693 51.9569C421.693 53.3092 423.071 54.361 424.698 54.361C426.389 54.361 427.703 53.2591 427.703 51.9569C427.703 50.6548 426.389 49.5529 424.698 49.5529ZM422.319 51.9569C422.319 50.9052 423.384 50.0037 424.761 50.0037C426.076 50.0037 427.203 50.8551 427.203 51.9569C427.203 53.0087 426.138 53.9102 424.761 53.9102C423.384 53.9102 422.319 53.0588 422.319 51.9569ZM424.511 51.9569C424.511 52.0571 424.573 52.1072 424.698 52.1072H426.263C426.389 52.1072 426.451 52.0571 426.451 51.9569C426.451 51.8568 426.389 51.8067 426.263 51.8067H424.886V50.4043C424.886 50.3042 424.824 50.2541 424.698 50.2541C424.573 50.2541 424.511 50.3042 424.511 50.4043V51.9569ZM435.529 82.6084H437.532V69.0356H435.529V82.6084ZM429.456 67.6834C429.456 69.7869 427.328 71.4897 424.698 71.4897C422.069 71.4897 419.94 69.7869 419.94 67.6834C419.94 65.5798 422.069 63.877 424.698 63.877C427.328 63.927 429.456 65.6299 429.456 67.6834ZM426.201 66.4813C426.576 66.7818 427.14 66.7818 427.453 66.4813C427.829 66.1808 427.829 65.7301 427.453 65.4797C427.077 65.1791 426.514 65.1791 426.201 65.4797C425.888 65.7301 425.888 66.2309 426.201 66.4813ZM423.822 65.2793C423.822 65.68 424.197 65.9805 424.698 65.9805C425.199 65.9805 425.575 65.68 425.575 65.2793C425.575 64.8786 425.199 64.5781 424.698 64.5781C424.197 64.5281 423.822 64.8786 423.822 65.2793ZM421.631 68.4346C422.132 68.4346 422.507 68.1341 422.507 67.7334C422.507 67.3328 422.132 67.0323 421.631 67.0323C421.13 67.0323 420.754 67.3328 420.754 67.7334C420.754 68.084 421.13 68.4346 421.631 68.4346ZM423.196 68.9355C422.82 68.635 422.257 68.635 421.944 68.9355C421.568 69.236 421.568 69.6867 421.944 69.9371C422.319 70.2376 422.883 70.2376 423.196 69.9371C423.571 69.6366 423.571 69.1859 423.196 68.9355ZM423.196 65.4797C422.82 65.1791 422.257 65.1791 421.944 65.4797C421.568 65.7802 421.568 66.2309 421.944 66.4813C422.319 66.7818 422.883 66.7818 423.196 66.4813C423.571 66.2309 423.571 65.7301 423.196 65.4797ZM425.637 70.1375C425.637 69.7368 425.262 69.4363 424.761 69.4363C424.26 69.4363 423.884 69.7368 423.884 70.1375C423.884 70.5381 424.26 70.8387 424.761 70.8387C425.199 70.8887 425.637 70.5381 425.637 70.1375ZM425.888 67.6834C425.888 67.1825 425.387 66.7318 424.698 66.7318C424.01 66.7318 423.509 67.1324 423.509 67.6834C423.509 68.1842 424.01 68.635 424.698 68.635C425.387 68.635 425.888 68.2343 425.888 67.6834ZM427.516 68.9355C427.14 68.635 426.576 68.635 426.263 68.9355C425.888 69.236 425.888 69.6867 426.263 69.9371C426.639 70.2376 427.203 70.2376 427.516 69.9371C427.829 69.6366 427.829 69.1859 427.516 68.9355ZM427.766 66.9822C427.265 66.9822 426.889 67.2827 426.889 67.6834C426.889 68.084 427.265 68.3845 427.766 68.3845C428.267 68.3845 428.642 68.084 428.642 67.6834C428.642 67.2827 428.267 66.9822 427.766 66.9822ZM437.532 59.3694H432.461C431.835 58.9186 431.084 58.518 430.27 58.2175C428.642 57.5664 426.764 57.1657 424.698 57.1657C422.695 57.1657 420.754 57.5664 419.126 58.2175C418.313 58.518 417.624 58.9186 416.935 59.3694H411.864V67.8837H413.868V67.7835C413.868 63.0255 418.688 59.119 424.698 59.119C430.646 59.119 435.529 62.9754 435.529 67.7835V67.8837H437.532V59.3694ZM425.011 36.5811V32.2739H427.015V31.6729H425.011V30.2204H424.26V31.6729H422.382V32.2739H424.26V36.3808L409.61 56.1139H387.26V57.6665H410.487L424.698 38.7347L438.972 57.6665H462.199V56.1139H439.849L425.011 36.5811ZM397.528 53.1089H394.46V53.5596H397.528V53.1089ZM397.528 52.3075H394.46V52.7583H397.528V52.3075ZM397.528 47.7499H394.46V48.2006H397.528V47.7499ZM397.528 51.5563H394.46V52.007H397.528V51.5563ZM394.46 54.962H397.528V54.6114H394.46V54.962ZM397.528 53.8601H394.46V54.3109H397.528V53.8601ZM397.528 50.805H394.46V51.2558H397.528V50.805ZM401.096 45.9468H402.098C401.91 45.8968 401.785 45.8968 401.597 45.8968C401.409 45.8968 401.284 45.8968 401.096 45.9468ZM397.528 47.0988C397.528 47.0487 397.528 47.0487 397.528 46.9986H394.46C394.46 47.0487 394.46 47.0487 394.46 47.0988V47.4494H397.528V47.0988ZM397.528 48.5011H394.46V48.9519H397.528V48.5011ZM394.523 46.6981H397.402C397.34 46.5479 397.215 46.3475 397.027 46.2474H394.898C394.71 46.3475 394.585 46.5479 394.523 46.6981ZM397.528 50.0537H394.46V50.5045H397.528V50.0537ZM390.328 24.6611H386.697L388.012 32.2739L390.328 24.6611ZM403.162 53.8601H400.095V54.3109H403.162V53.8601ZM411.113 37.683H386.572L383.942 40.7882H413.805L411.113 37.683ZM410.424 54.962V42.1405H387.198V54.962H394.084V47.0988C394.084 46.648 394.335 46.2473 394.773 45.9468C395.086 45.6964 395.524 45.5963 396.025 45.5963C397.089 45.5963 397.903 46.2974 397.903 47.0988V55.0121H399.719V47.0988C399.719 46.648 399.969 46.2473 400.408 45.9468C400.721 45.6964 401.159 45.5963 401.66 45.5963C402.724 45.5963 403.538 46.2974 403.538 47.0988V55.0121H410.424V54.962ZM403.162 53.1089H400.095V53.5596H403.162V53.1089ZM400.157 46.6981H403.037C402.974 46.5479 402.849 46.3475 402.661 46.2474H400.533C400.345 46.3475 400.282 46.5479 400.157 46.6981ZM410.925 24.6611H407.294L409.61 32.2739L410.925 24.6611ZM398.404 -4.28752H396.526V-4.88853H398.404V-6.34097H399.155V-4.88853H401.159V-4.28752H399.155V1.37198H399.844V1.92291H399.093L399.343 2.67417H400.533V3.22509H399.531L410.675 36.9317H404.665L399.155 3.22509H399.093L403.976 36.9317H401.597V25.8631L398.717 20.9549L395.837 25.8631V36.9818H393.458L398.342 3.27518H398.279L392.77 36.9818H386.76L397.903 3.27518H396.902V2.72425H398.091L398.342 1.97299H397.59V1.42207H398.154V-4.28752H398.404ZM398.905 1.92291L399.03 2.67417L398.905 1.92291ZM398.529 2.67417L398.655 1.92291L398.529 2.67417ZM396.902 26.0134V36.1804V36.9317H400.721V36.1804V26.0134L398.78 22.7078L396.902 26.0134ZM395.462 45.9468H396.463C396.276 45.8968 396.15 45.8968 395.963 45.8968C395.775 45.8968 395.65 45.8968 395.462 45.9468ZM400.095 54.962H403.162V54.6114H400.095V54.962ZM403.162 47.7499H400.095V48.2006H403.162V47.7499ZM403.162 48.5011H400.095V48.9519H403.162V48.5011ZM403.162 47.0988C403.162 47.0487 403.162 47.0487 403.162 46.9986H400.095C400.095 47.0487 400.095 47.0487 400.095 47.0988V47.4494H403.162V47.0988ZM403.162 49.3025H400.095V49.7532H403.162V49.3025ZM403.162 50.805H400.095V51.2558H403.162V50.805ZM403.162 51.5563H400.095V52.007H403.162V51.5563ZM403.162 50.0537H400.095V50.5045H403.162V50.0537ZM403.162 52.3075H400.095V52.7583H403.162V52.3075ZM397.528 49.3025H394.46V49.7532H397.528V49.3025ZM387.198 71.3395H391.643V65.1291C391.643 61.9738 394.836 59.4195 398.78 59.4195C402.724 59.4195 405.917 61.9738 405.917 65.1291V71.3395H410.362V58.8185H387.135V71.3395H387.198ZM387.198 83.7604H410.424V99.9375H387.198V83.7604ZM392.331 99.8874H393.584V92.4249C393.584 90.121 395.9 88.2679 398.78 88.2679C401.66 88.2679 403.976 90.121 403.976 92.4249V99.8874H405.228V92.3748C405.228 89.52 402.348 87.1661 398.717 87.1661C395.086 87.1661 392.206 89.4699 392.206 92.3748V99.8874H392.331ZM402.599 71.3395V64.8786C402.599 64.2276 401.973 63.7267 401.159 63.7267C400.345 63.7267 399.719 64.2276 399.719 64.8786V71.3395H397.903V64.8786C397.903 64.2276 397.277 63.7267 396.463 63.7267C395.65 63.7267 395.024 64.2276 395.024 64.8786V71.3395H392.958V65.1291C392.958 62.5748 395.587 60.4712 398.78 60.4712C401.973 60.4712 404.602 62.5748 404.602 65.1291V71.3395H402.599ZM399.656 61.9237C399.656 61.5731 399.281 61.2726 398.842 61.2726C398.404 61.2726 398.029 61.5731 398.029 61.9237C398.029 62.2743 398.404 62.5748 398.842 62.5748C399.281 62.5748 399.656 62.2743 399.656 61.9237ZM387.198 82.6084H395.024V76.1476C395.024 75.4965 395.65 74.9956 396.463 74.9956C397.277 74.9956 397.903 75.4965 397.903 76.1476V82.6084H399.719V76.1476C399.719 75.4965 400.345 74.9956 401.159 74.9956C401.973 74.9956 402.599 75.4965 402.599 76.1476V82.6084H410.424V72.4914H387.198V82.6084ZM451.744 51.2558H454.811V50.805H451.744V51.2558ZM451.744 52.8084H454.811V52.3576H451.744V52.8084ZM451.744 50.5045H454.811V50.0537H451.744V50.5045ZM451.744 52.007H454.811V51.5563H451.744V52.007ZM451.744 47.0988V47.4494H454.811V47.0988C454.811 47.0487 454.811 47.0487 454.811 46.9986H451.744C451.744 47.0487 451.744 47.0487 451.744 47.0988ZM451.744 53.5596H454.811V53.1089H451.744V53.5596ZM451.744 49.7532H454.811V49.3025H451.744V49.7532ZM451.744 48.2006H454.811V47.7499H451.744V48.2006ZM451.744 49.002H454.811V48.5512H451.744V49.002ZM451.744 54.962H454.811V54.6114H451.744V54.962ZM452.745 45.9468H453.747C453.559 45.8968 453.434 45.8968 453.246 45.8968C453.121 45.8467 452.933 45.8968 452.745 45.9468ZM438.847 54.962H445.734V47.0988C445.734 46.648 445.984 46.2473 446.422 45.9468C446.735 45.6964 447.174 45.5963 447.674 45.5963C448.739 45.5963 449.553 46.2974 449.553 47.0988V55.0121H451.368V47.0988C451.368 46.648 451.619 46.2473 452.057 45.9468C452.37 45.6964 452.808 45.5963 453.309 45.5963C454.373 45.5963 455.187 46.2974 455.187 47.0988V55.0121H462.074V42.1905H438.847V54.962ZM449.991 -4.28752H448.113V-4.88853H449.991V-6.34097H450.742V-4.88853H452.745V-4.28752H450.742V1.37198H451.431V1.92291H450.679L450.93 2.67417H452.119V3.22509H451.118L462.261 36.9317H456.251L450.742 3.22509H450.679L455.563 36.9317H453.184V25.8631L450.304 20.9549L447.424 25.8631V36.9818H445.045L449.928 3.27518H449.866L444.356 36.9818H438.346L449.49 3.27518H448.739V2.72425H449.928L450.179 1.97299H449.427V1.42207H449.991V-4.28752ZM450.554 1.92291L450.679 2.67417L450.554 1.92291ZM450.179 2.67417L450.304 1.92291L450.179 2.67417ZM462.512 24.6611H458.881L461.197 32.2739L462.512 24.6611ZM441.977 24.6611H438.346L439.661 32.2739L441.977 24.6611ZM448.551 26.0134V36.1804V36.9317H452.37V36.1804V26.0134L450.429 22.7078L448.551 26.0134ZM462.7 37.683H438.158L435.529 40.7882H465.392L462.7 37.683ZM451.744 54.3109H454.811V53.8601H451.744V54.3109ZM454.248 71.3395V64.8786C454.248 64.2276 453.622 63.7267 452.808 63.7267C451.994 63.7267 451.368 64.2276 451.368 64.8786V71.3395H449.553V64.8786C449.553 64.2276 448.927 63.7267 448.113 63.7267C447.299 63.7267 446.673 64.2276 446.673 64.8786V71.3395H444.607V65.1291C444.607 62.5748 447.236 60.4712 450.429 60.4712C453.622 60.4712 456.251 62.5748 456.251 65.1291V71.3395H454.248ZM451.306 61.9237C451.306 61.5731 450.93 61.2726 450.492 61.2726C450.053 61.2726 449.678 61.5731 449.678 61.9237C449.678 62.2743 450.053 62.5748 450.492 62.5748C450.93 62.5748 451.306 62.2743 451.306 61.9237ZM446.109 47.0988V47.4494H449.177V47.0988C449.177 47.0487 449.177 47.0487 449.177 46.9986H446.109C446.109 47.0487 446.109 47.0487 446.109 47.0988ZM447.111 45.9468H448.113C447.925 45.8968 447.8 45.8968 447.612 45.8968C447.424 45.8968 447.299 45.8968 447.111 45.9468ZM446.109 48.2006H449.177V47.7499H446.109V48.2006ZM446.109 49.002H449.177V48.5512H446.109V49.002ZM446.172 46.6981H449.052C448.989 46.5479 448.864 46.3475 448.676 46.2474H446.485C446.36 46.3475 446.235 46.5479 446.172 46.6981ZM438.847 83.7604H462.074V99.9375H438.847V83.7604ZM443.981 99.8874H445.233V92.4249C445.233 90.121 447.549 88.2679 450.429 88.2679C453.309 88.2679 455.625 90.121 455.625 92.4249V99.8874H456.877V92.3748C456.877 89.52 453.998 87.1661 450.366 87.1661C446.798 87.1661 443.856 89.4699 443.856 92.3748V99.8874H443.981ZM438.847 71.3395H443.292V65.1291C443.292 61.9738 446.485 59.4195 450.429 59.4195C454.373 59.4195 457.566 61.9738 457.566 65.1291V71.3395H462.011V58.8185H438.784V71.3395H438.847ZM438.847 82.6084H446.673V76.1476C446.673 75.4965 447.299 74.9956 448.113 74.9956C448.927 74.9956 449.553 75.4965 449.553 76.1476V82.6084H451.368V76.1476C451.368 75.4965 451.994 74.9956 452.808 74.9956C453.622 74.9956 454.248 75.4965 454.248 76.1476V82.6084H462.074V72.4914H438.847V82.6084ZM446.109 52.007H449.177V51.5563H446.109V52.007ZM446.109 52.8084H449.177V52.3576H446.109V52.8084ZM446.109 54.3109H449.177V53.8601H446.109V54.3109ZM446.109 49.7532H449.177V49.3025H446.109V49.7532ZM446.109 54.962H449.177V54.6114H446.109V54.962ZM446.109 53.5596H449.177V53.1089H446.109V53.5596ZM446.109 50.5045H449.177V50.0537H446.109V50.5045ZM446.109 51.2558H449.177V50.805H446.109V51.2558ZM451.806 46.6981H454.686C454.624 46.5479 454.498 46.3475 454.311 46.2474H452.119C451.994 46.3475 451.869 46.5479 451.806 46.6981Z" fill="white"/>
<path d="M298.828 68.9567H300.706V99.8586H298.828V68.9567ZM315.794 76.5695H322.43V71.2606H315.794V76.5695ZM337.518 68.9567V99.8586H339.396V68.9567H337.518ZM303.023 68.9567H335.264V99.8586H328.753V86.1355C328.753 81.8784 324.434 78.4727 319.175 78.4727C313.853 78.4727 309.596 81.9285 309.596 86.1355V99.8586H303.085V68.9567H303.023ZM314.792 77.4209H323.494V70.4592H314.792V77.4209ZM342.777 66.3523H295.51V68.1554H342.777V66.3523ZM311.286 49.9247H327V63.197H311.286V49.9247ZM311.975 56.5859C311.975 59.7412 315.168 62.2955 319.112 62.2955C323.056 62.2955 326.249 59.7412 326.249 56.5859C326.249 53.4306 323.056 50.8763 319.112 50.8763C315.168 50.8763 311.975 53.4306 311.975 56.5859ZM312.977 56.5859C312.977 53.8814 315.731 51.6777 319.112 51.6777C322.493 51.6777 325.247 53.8814 325.247 56.5859C325.247 59.2905 322.493 61.4942 319.112 61.4942C315.731 61.4942 312.977 59.3405 312.977 56.5859ZM318.736 53.2303V57.3372H322.43C322.555 57.3372 322.681 57.237 322.681 57.1368C322.681 57.0367 322.555 56.9365 322.43 56.9365H319.237V53.2303C319.237 53.1301 319.112 53.03 318.987 53.03C318.862 53.03 318.736 53.1301 318.736 53.2303ZM303.899 65.7012H306.09V47.12H303.899V65.7012ZM306.904 47.12H331.32V65.7012H306.904V47.12ZM310.473 63.8982H327.814V49.2236H310.473V63.8982ZM332.197 47.12V65.7012H334.388V47.12H332.197ZM336.892 44.6158H301.395V45.918H302.647V46.6192H335.64V45.918H336.892V44.6158ZM334.513 40.7593V44.0148H303.774V40.7593H334.513ZM330.569 42.5624C330.569 42.2118 330.193 41.9113 329.755 41.9113H308.407C307.968 41.9113 307.593 42.2118 307.593 42.5624C307.593 42.913 307.968 43.2135 308.407 43.2135H329.755C330.256 43.1634 330.569 42.913 330.569 42.5624ZM300.018 40.2585H338.269L319.55 34.4487L319.425 31.1432C320.051 31.043 320.489 30.5923 320.489 30.0914C320.489 29.5405 319.989 29.1398 319.363 29.0397L319.175 23.0797L318.987 29.0397C318.361 29.1398 317.86 29.5405 317.86 30.0914C317.86 30.5923 318.298 31.043 318.924 31.1432L318.799 34.4487L300.018 40.2585ZM265.146 79.3742H297.326V77.7715H265.146V79.3742ZM267.212 100.009H265.146V80.5261H267.212V100.009ZM281.236 82.3292H285.431V86.3359H281.236V82.3292ZM269.278 80.5762V100.059H274.036V91.0438H292.568V100.059H297.326V80.5762H269.278ZM280.673 81.7281H285.994V86.8367H280.673V81.7281ZM278.106 89.992H274.036V89.8418H278.106V89.992ZM278.106 89.6915H274.036V89.4912H278.106V89.6915ZM278.106 89.3409H274.036V89.1406H278.106V89.3409ZM278.106 88.9903H274.036V88.79H278.106V88.9903ZM278.106 88.6898H274.036V88.4895H278.106V88.6898ZM278.106 88.3393H274.036V88.189H278.106V88.3393ZM283.177 89.992H278.419V89.8418H283.177V89.992ZM283.177 89.6915H278.419V89.4912H283.177V89.6915ZM283.177 89.3409H278.419V89.1406H283.177V89.3409ZM283.177 88.9903H278.419V88.79H283.177V88.9903ZM283.177 88.6898H278.419V88.4895H283.177V88.6898ZM283.177 88.3393H278.419V88.189H283.177V88.3393ZM288.248 89.992H283.49V89.8418H288.248V89.992ZM288.248 89.6915H283.49V89.4912H288.248V89.6915ZM288.248 89.3409H283.49V89.1406H288.248V89.3409ZM288.248 88.9903H283.49V88.79H288.248V88.9903ZM288.248 88.6898H283.49V88.4895H288.248V88.6898ZM288.248 88.3393H283.49V88.189H288.248V88.3393ZM292.568 89.992H288.498V89.8418H292.568V89.992ZM292.568 89.6915H288.498V89.4912H292.568V89.6915ZM292.568 89.3409H288.498V89.1406H292.568V89.3409ZM292.568 88.9903H288.498V88.79H292.568V88.9903ZM292.568 88.6898H288.498V88.4895H292.568V88.6898ZM292.568 88.3393H288.498V88.189H292.568V88.3393ZM297.326 69.4075L272.596 76.7698H277.417L297.326 70.8599V69.4075ZM297.326 76.7698H281.299L297.326 72.112V76.7698ZM373.266 77.8216H341.087V79.4243H373.266V77.8216ZM371.2 80.5762H373.266V100.059H371.2V80.5762ZM357.239 86.2858H353.044V82.2791H357.239V86.2858ZM341.087 80.5762V100.059H345.845V91.0438H364.376V100.059H369.134V80.5762H341.087ZM357.802 86.8367H352.481V81.7281H357.802V86.8367ZM360.306 89.8418H364.376V89.992H360.306V89.8418ZM360.306 89.4912H364.376V89.6915H360.306V89.4912ZM360.306 89.1406H364.376V89.3409H360.306V89.1406ZM360.306 88.79H364.376V88.9903H360.306V88.79ZM360.306 88.4394H364.376V88.6398H360.306V88.4394ZM360.306 88.189H364.376V88.3393H360.306V88.189ZM355.298 89.8418H360.056V89.992H355.298V89.8418ZM355.298 89.4912H360.056V89.6915H355.298V89.4912ZM355.298 89.1406H360.056V89.3409H355.298V89.1406ZM355.298 88.79H360.056V88.9903H355.298V88.79ZM355.298 88.4394H360.056V88.6398H355.298V88.4394ZM355.298 88.189H360.056V88.3393H355.298V88.189ZM350.227 89.8418H354.985V89.992H350.227V89.8418ZM350.227 89.4912H354.985V89.6915H350.227V89.4912ZM350.227 89.1406H354.985V89.3409H350.227V89.1406ZM350.227 88.79H354.985V88.9903H350.227V88.79ZM350.227 88.4394H354.985V88.6398H350.227V88.4394ZM350.227 88.189H354.985V88.3393H350.227V88.189ZM345.845 89.8418H349.914V89.992H345.845V89.8418ZM345.845 89.4912H349.914V89.6915H345.845V89.4912ZM345.845 89.1406H349.914V89.3409H345.845V89.1406ZM345.845 88.79H349.914V88.9903H345.845V88.79ZM345.845 88.4394H349.914V88.6398H345.845V88.4394ZM345.845 88.189H349.914V88.3393H345.845V88.189ZM341.087 70.8599L360.995 76.7698H365.816L341.087 69.4075V70.8599ZM341.087 72.112L357.176 76.7698H341.149V72.112H341.087Z" fill="white"/>
<path d="M510.788 71.5863V99.608H509.197V71.5863H510.788ZM505.246 71.5863V99.608H508.171V71.5863H505.246ZM530.593 71.5863V99.608H528.643V90.1035H513.712V99.608H511.763V71.5863H530.593ZM525.411 78.5098H528.335V72.7334H525.411V78.5098ZM518.33 78.5098H524.025V72.7334H518.33V78.5098ZM514.02 78.5098H516.945V72.7334H514.02V78.5098ZM528.643 85.802H513.712V88.219H528.643V85.802ZM528.643 80.3123H513.712V84.3681H528.643V80.3123ZM531.568 71.5863V99.608H533.159V71.5863H531.568ZM534.185 71.5863V99.608H537.109V71.5863H534.185ZM575.899 67.7353H466.457V70.4392H575.848V67.7353H575.899ZM509.402 61.0576V66.916H511.506V62.5734H516.124V66.916H518.792V62.5734H523.41V66.916H526.078V62.5734H530.696V66.916H532.902V61.0576H509.402ZM534.698 58.8044H507.658V60.2383H534.698V58.8044ZM504.477 92.5206H468.509V99.608H504.477V92.5206ZM504.477 91.2916H465.738V89.5709H504.477V91.2916ZM479.54 71.5863V88.1371H473.999V71.5863H479.54ZM486.057 71.5863V88.1371H480.515V71.5863H486.057ZM473.075 71.5863V88.1371H468.56V71.5863H473.075ZM504.477 71.5863V88.1371H499.961V71.5863H504.477ZM499.038 71.5863V88.1371H493.497V71.5863H499.038ZM492.522 71.5863V88.1371H486.98V71.5863H492.522ZM537.879 99.567H573.847V92.4796H537.879V99.567ZM537.879 89.5709H576.617V91.2916H537.879V89.5709ZM568.408 71.5863V88.1371H562.867V71.5863H568.408ZM561.892 71.5863V88.1371H556.35V71.5863H561.892ZM573.847 71.5863V88.1371H569.331V71.5863H573.847ZM542.445 71.5863V88.1371H537.93V71.5863H542.445ZM548.91 71.5863V88.1371H543.369V71.5863H548.91ZM555.427 71.5863V88.1371H549.885V71.5863H555.427Z" fill="white"/>
<path d="M75.3302 72.6364V100.658H73.7396V72.6364H75.3302ZM69.7888 72.6364V100.658H72.7134V72.6364H69.7888ZM95.1355 72.6364V100.658H93.1858V91.1536H78.2548V100.658H76.3051V72.6364H95.1355ZM89.9533 79.5599H92.8779V73.7835H89.9533V79.5599ZM82.8727 79.5599H88.568V73.7835H82.8727V79.5599ZM78.5627 79.5599H81.4873V73.7835H78.5627V79.5599ZM93.1858 86.8521H78.2548V89.2691H93.1858V86.8521ZM93.1858 81.3624H78.2548V85.4182H93.1858V81.3624ZM96.1104 72.6364V100.658H97.701V72.6364H96.1104ZM98.7272 72.6364V100.658H101.652V72.6364H98.7272ZM140.442 68.7854H30.9991V71.4893H140.39V68.7854H140.442ZM73.9449 62.1078V67.9661H76.0485V63.6236H80.6664V67.9661H83.3344V63.6236H87.9523V67.9661H90.6203V63.6236H95.2382V67.9661H97.4445V62.1078H73.9449ZM99.2403 59.8546H72.2003V61.2884H99.2403V59.8546ZM69.0192 93.5707H33.0515V100.658H69.0192V93.5707ZM69.0192 92.3417H30.2808V90.6211H69.0192V92.3417ZM44.0829 72.6364V89.1872H38.5415V72.6364H44.0829ZM50.5992 72.6364V89.1872H45.0578V72.6364H50.5992ZM37.618 72.6364V89.1872H33.1028V72.6364H37.618ZM69.0192 72.6364V89.1872H64.504V72.6364H69.0192ZM63.5804 72.6364V89.1872H58.039V72.6364H63.5804ZM57.0641 72.6364V89.1872H51.5228V72.6364H57.0641ZM102.421 100.617H138.389V93.5297H102.421V100.617ZM102.421 90.6211H141.16V92.3417H102.421V90.6211ZM132.95 72.6364V89.1872H127.409V72.6364H132.95ZM126.434 72.6364V89.1872H120.893V72.6364H126.434ZM138.389 72.6364V89.1872H133.874V72.6364H138.389ZM106.988 72.6364V89.1872H102.473V72.6364H106.988ZM113.453 72.6364V89.1872H107.912V72.6364H113.453ZM119.969 72.6364V89.1872H114.428V72.6364H119.969Z" fill="white"/>
<path fill-rule="evenodd" clip-rule="evenodd" d="M633.174 53.3971V45.8763H627.208V39.892H609.37V45.8763H603.404V53.3971H599.198V99.3147H637.38V53.3971H633.174ZM608.359 55.6779H606.276V57.3438H608.359V55.6779ZM606.276 63.5215H608.359V65.1874H606.276V63.5215ZM608.359 66.3359H606.276V68.0018H608.359V66.3359ZM606.276 75.3607H608.359V77.0266H606.276V75.3607ZM605.144 59.1705H603.06V60.8365H605.144V59.1705ZM613.738 70.864H615.821V72.5299H613.738V70.864ZM615.821 59.1705H613.738V60.8365H615.821V59.1705ZM623.911 55.6779H625.994V57.3438H623.911V55.6779ZM625.994 63.5215H623.911V65.1874H625.994V63.5215ZM623.911 66.3359H625.994V68.0018H623.911V66.3359ZM625.994 74.5685H623.911V76.2344H625.994V74.5685ZM606.276 78.3859H608.359V80.0518H606.276V78.3859ZM608.359 81.2157H606.276V82.8816H608.359V81.2157ZM606.276 90.2245H608.359V91.8904H606.276V90.2245ZM615.821 85.7277H613.738V87.3936H615.821V85.7277ZM613.738 95.0282H615.821V96.694H613.738V95.0282ZM622.778 95.0282H620.695V96.694H622.778V95.0282ZM631.738 95.0282H633.821V96.694H631.738V95.0282ZM633.821 85.7277H631.738V87.3936H633.821V85.7277ZM631.738 75.3607H633.821V77.0266H631.738V75.3607ZM633.821 70.864H631.738V72.5299H633.821V70.864ZM631.738 66.3359H633.821V68.0018H631.738V66.3359ZM633.821 59.1705H631.738V60.8365H633.821V59.1705ZM623.911 77.6085H625.994V79.2744H623.911V77.6085ZM625.994 80.4235H623.911V82.0894H625.994V80.4235ZM623.911 90.2245H625.994V91.8904H623.911V90.2245ZM622.778 59.1705H620.695V60.8365H622.778V59.1705ZM620.695 47.5415H622.778V49.2074H620.695V47.5415ZM622.778 44.5653H620.695V46.2312H622.778V44.5653ZM613.738 47.5415H615.821V49.2074H613.738V47.5415Z" fill="white"/>
<path fill-rule="evenodd" clip-rule="evenodd" d="M179.836 54.4472V46.9264H173.87V40.942H156.033V46.9264H150.067V54.4472H145.86V100.365H184.043V54.4472H179.836ZM155.022 56.7279H152.939V58.3938H155.022V56.7279ZM152.939 64.5727H155.022V66.2386H152.939V64.5727ZM155.022 67.3865H152.939V69.0524H155.022V67.3865ZM152.939 76.4119H155.022V78.0778H152.939V76.4119ZM151.806 60.2217H149.723V61.8876H151.806V60.2217ZM160.401 71.9157H162.484V73.5816H160.401V71.9157ZM162.484 60.2217H160.401V61.8876H162.484V60.2217ZM170.574 56.7279H172.657V58.3938H170.574V56.7279ZM172.657 64.5727H170.574V66.2386H172.657V64.5727ZM170.574 67.3865H172.657V69.0524H170.574V67.3865ZM172.657 75.6197H170.574V77.2856H172.657V75.6197ZM152.939 79.4365H155.022V81.1024H152.939V79.4365ZM155.022 82.2668H152.939V83.9327H155.022V82.2668ZM152.939 91.2763H155.022V92.9422H152.939V91.2763ZM162.484 86.7795H160.401V88.4454H162.484V86.7795ZM160.401 96.0793H162.484V97.7452H160.401V96.0793ZM169.441 96.0793H167.358V97.7452H169.441V96.0793ZM178.401 96.0793H180.484V97.7452H178.401V96.0793ZM180.484 86.7795H178.401V88.4454H180.484V86.7795ZM178.401 76.4119H180.484V78.0778H178.401V76.4119ZM180.484 71.9157H178.401V73.5816H180.484V71.9157ZM178.401 67.3865H180.484V69.0524H178.401V67.3865ZM180.484 60.2217H178.401V61.8876H180.484V60.2217ZM170.574 78.6602H172.657V80.3262H170.574V78.6602ZM172.657 81.4753H170.574V83.1412H172.657V81.4753ZM170.574 91.2763H172.657V92.9422H170.574V91.2763ZM169.441 60.2217H167.358V61.8876H169.441V60.2217ZM167.358 48.5927H169.441V50.2586H167.358V48.5927ZM169.441 45.6171H167.358V47.283H169.441V45.6171ZM160.401 48.5927H162.484V50.2586H160.401V48.5927Z" fill="white"/>
<path d="M599.232 78.6916C599.03 78.5687 598.828 78.4868 598.525 78.4868C598.02 78.4868 597.565 78.4458 597.161 78.2819C596.959 78.159 596.757 78.0361 596.454 77.9951C596.706 77.5034 596.605 76.9298 596.201 76.52C596.757 75.5776 596.302 74.3894 594.939 74.1025C594.332 72.9962 593.221 71.9309 591.858 73.2011C591.706 73.365 591.554 73.5289 591.504 73.7338C591.049 73.5289 590.494 73.406 589.989 73.365C589.686 73.324 589.433 73.324 589.181 73.406C588.928 73.447 588.675 73.5289 588.423 73.6518C588.372 73.1601 588.322 72.6275 588.271 72.1358C588.322 72.1768 588.372 72.2177 588.473 72.2177C588.574 72.2587 588.675 72.2997 588.776 72.2997C589.484 73.1601 590.898 73.2421 591.908 72.5865C592.009 72.5455 592.11 72.4636 592.161 72.4226C592.464 72.5865 592.817 72.6275 593.12 72.5046C593.928 72.6685 594.737 72.6685 595.444 72.1768C596.252 71.6031 596.454 70.6607 595.848 69.9642C595.09 69.0627 593.777 69.2266 592.817 69.8003C592.716 69.6774 592.565 69.5954 592.413 69.5135C592.161 69.2266 591.504 69.0627 591.1 69.2266C591.049 69.2266 591.049 69.2676 590.999 69.2676C590.898 69.2676 590.797 69.2676 590.696 69.2676C590.645 69.2676 590.595 69.2676 590.544 69.2676C590.292 68.8169 589.888 68.4072 589.231 68.2842C589.079 68.2433 588.877 68.2433 588.726 68.2433C588.524 67.9155 588.271 67.6287 587.817 67.4648C587.16 67.1779 586.504 67.2189 585.998 67.5057C585.594 67.2189 585.089 67.096 584.433 67.3418C584.281 67.3828 584.13 67.4648 583.978 67.5467C583.978 67.5467 583.978 67.5467 583.928 67.5467C583.018 67.096 581.604 67.9564 580.998 68.4891C580.493 68.9398 580.543 69.4315 580.796 69.8822C580.19 70.292 579.735 70.8656 579.685 71.6031C579.634 72.4226 580.24 73.2011 581.15 73.5289C580.998 73.5699 580.897 73.6518 580.796 73.7748C580.746 73.8567 580.644 73.8977 580.594 73.9387C580.24 73.324 578.978 73.2011 578.473 73.8977C578.473 73.8977 578.473 73.9387 578.422 73.9387C577.917 74.1435 577.462 74.5533 577.109 74.922C576.503 75.6186 577.614 76.2742 578.422 76.1512C578.675 76.1103 578.877 76.0283 579.079 75.9464C579.23 75.9874 579.382 75.9874 579.533 75.9874C579.634 76.0283 579.685 76.0283 579.786 76.0693C580.695 76.2742 581.453 76.0283 582.109 75.5776C582.867 75.5366 583.574 75.045 583.726 74.3484C583.978 74.3074 584.231 74.1845 584.433 74.0616C584.837 73.8157 585.089 73.5289 585.291 73.2011C585.392 73.2011 585.544 73.2011 585.645 73.2011C585.796 73.324 585.998 73.406 586.2 73.447C586.352 74.1845 586.655 74.963 587.261 75.5366C587.312 75.9874 587.615 76.3561 588.019 76.602C588.019 79.1424 587.968 81.6827 587.867 84.2231C587.413 82.9529 586.605 81.6827 586.15 80.3716C586.655 80.1257 587.059 79.7979 587.312 79.3882C587.564 79.1014 587.716 78.7326 587.817 78.4868C587.867 78.3229 587.867 78.077 587.867 77.8722C587.968 77.4624 587.918 76.9707 587.615 76.561C587.564 76.479 587.514 76.4381 587.413 76.3971C587.312 76.1922 587.16 76.0283 586.908 75.8644C585.796 75.2088 584.382 75.9464 583.978 76.8478C583.726 76.8068 583.473 76.7659 583.271 76.8068C583.119 76.6429 582.917 76.52 582.614 76.479C582.564 76.479 582.564 76.479 582.513 76.479C582.412 76.3561 582.261 76.2742 582.059 76.2332C581.15 75.9464 580.24 76.561 580.24 77.3395C580.24 77.3805 580.24 77.4214 580.24 77.4624C580.19 77.5444 580.139 77.5853 580.089 77.6673C579.836 77.9951 579.634 78.4048 579.634 78.7736C579.382 78.7326 579.129 78.7736 578.927 78.8555C578.675 78.9375 578.473 79.1424 578.372 79.3472C577.917 79.3472 577.513 79.5521 577.311 79.9209C577.21 80.0438 577.21 80.1667 577.159 80.2896C577.058 80.3716 576.957 80.4535 576.856 80.5355C575.745 80.5355 574.886 81.1911 574.836 82.1744C574.836 82.4203 575.088 82.7071 575.341 82.789C576.503 83.1578 577.664 82.871 578.422 82.2564C578.675 82.1335 578.826 81.9286 578.877 81.7237V81.6827C579.331 81.8466 579.887 81.8057 580.341 81.7237C580.139 82.2154 580.442 82.83 581.15 82.9939C581.958 83.1988 582.564 82.871 582.917 82.3383C583.17 82.2564 583.422 82.1335 583.625 82.0105C584.281 82.3793 585.089 82.3793 585.645 82.83C585.847 83.1988 586.099 83.5266 586.352 83.8544C586.756 84.387 586.958 84.9197 587.11 85.5343C586.605 87.7059 587.009 90.1644 587.261 92.4179C587.11 94.1388 587.009 95.8188 587.059 97.5397C587.009 97.9085 586.958 98.2362 586.958 98.564C586.453 98.7279 586.15 99.1787 586.504 99.5884C586.605 99.7113 586.706 99.8342 586.756 99.9572C587.11 100.408 587.867 100.326 588.17 99.8752C588.625 99.8752 589.079 99.8342 589.484 99.7113C589.989 99.5474 590.09 98.9738 589.686 98.7279C589.736 98.646 589.787 98.5231 589.787 98.4001C589.686 95.2042 589.282 92.0082 588.877 88.8122C588.877 88.1157 588.877 87.4191 588.877 86.7635C588.928 86.5996 588.928 86.4357 588.978 86.3128C589.181 85.5343 589.736 84.9197 590.14 84.2231C590.645 83.4446 590.999 82.6661 591.302 81.8466C591.352 81.8876 591.352 81.9286 591.403 81.9696C591.655 82.2154 591.959 82.2564 592.312 82.2974C592.817 82.789 593.524 83.1168 594.433 82.9529C595.393 83.4446 596.757 82.789 596.605 81.8876C596.858 81.7237 597.06 81.6008 597.262 81.4369C597.464 81.5598 597.717 81.6827 598.02 81.7237C598.272 81.7647 598.525 81.7237 598.727 81.6418C599.737 81.6418 600.848 81.314 601.202 80.4945C601.707 79.0604 600.444 78.6507 599.232 78.6916ZM587.463 74.3894C587.362 74.5533 587.261 74.7581 587.211 74.922C587.059 74.7991 586.958 74.6352 586.857 74.4713C586.605 74.1026 586.453 73.7338 586.302 73.324C586.857 73.406 587.514 73.2011 587.817 72.7914C587.817 72.7504 587.867 72.7094 587.867 72.7094C587.867 73.1192 587.867 73.5289 587.867 73.8977C587.766 74.0206 587.615 74.1845 587.463 74.3894ZM586.049 82.3383C586.049 82.2974 586.049 82.2974 585.998 82.2564C585.695 81.7647 585.039 81.6827 584.483 81.5188C584.332 81.4779 584.18 81.4369 584.029 81.355C584.13 81.273 584.18 81.1911 584.231 81.0681C584.281 81.0681 584.281 81.0681 584.332 81.0681C584.786 80.9862 585.089 80.7403 585.241 80.4535C585.291 80.4535 585.342 80.4535 585.392 80.4126C585.544 81.0681 585.796 81.7237 586.099 82.3793C586.099 82.3793 586.049 82.3793 586.049 82.3383ZM588.574 76.7249C588.675 76.7659 588.827 76.8068 588.978 76.8068C589.231 77.0117 589.635 77.1346 590.09 77.1756C589.888 77.4624 589.686 77.7492 589.484 78.0361C589.231 78.3638 588.928 78.6916 588.726 79.0604C588.675 78.2819 588.625 77.5034 588.574 76.7249ZM589.029 84.6329C588.978 84.7148 588.928 84.8377 588.827 84.9197C588.827 83.2398 588.776 81.5188 588.726 79.8389C588.776 79.716 588.877 79.5521 588.928 79.4292C588.877 79.8389 589.029 80.2487 589.383 80.5764C589.736 80.8633 590.191 81.0681 590.645 81.1911C590.746 81.232 590.898 81.273 590.999 81.273C590.544 82.4612 589.837 83.5266 589.029 84.6329ZM592.009 78.2409C591.352 77.8722 590.544 77.7902 589.837 78.2409C589.989 78.0361 590.14 77.8312 590.292 77.6263C590.342 77.6263 590.393 77.6263 590.443 77.5853C590.494 77.5444 590.544 77.4624 590.595 77.4214C590.746 77.5444 590.948 77.6673 591.15 77.7492C591.251 77.7902 591.302 77.7902 591.403 77.8312C591.908 78.2 592.514 78.2409 593.171 78.118C593.272 78.2 593.373 78.2819 593.474 78.3638C592.918 78.2819 592.413 78.2409 592.009 78.2409Z" fill="white"/>
<path d="M680.277 73.889C680.026 73.7387 679.776 73.6386 679.4 73.6386C678.774 73.6386 678.211 73.5885 677.71 73.3881C677.46 73.2379 677.209 73.0876 676.834 73.0375C677.147 72.4365 677.021 71.7354 676.521 71.2345C677.209 70.0826 676.646 68.6301 674.955 68.2796C674.204 66.9273 672.827 65.6251 671.137 67.1777C670.949 67.378 670.761 67.5784 670.698 67.8288C670.135 67.5784 669.446 67.4281 668.82 67.378C668.444 67.328 668.131 67.328 667.818 67.4281C667.505 67.4782 667.192 67.5784 666.879 67.7286C666.817 67.1276 666.754 66.4765 666.692 65.8755C666.754 65.9256 666.817 65.9757 666.942 65.9757C667.067 66.0258 667.192 66.0759 667.318 66.0759C668.194 67.1276 669.947 67.2278 671.199 66.4264C671.324 66.3764 671.45 66.2762 671.512 66.2261C671.888 66.4264 672.326 66.4765 672.702 66.3263C673.703 66.5266 674.705 66.5266 675.581 65.9256C676.583 65.2244 676.834 64.0725 676.082 63.2211C675.143 62.1192 673.516 62.3195 672.326 63.0207C672.201 62.8705 672.013 62.7703 671.825 62.6701C671.512 62.3195 670.698 62.1192 670.197 62.3195C670.135 62.3195 670.135 62.3696 670.072 62.3696C669.947 62.3696 669.822 62.3696 669.697 62.3696C669.634 62.3696 669.571 62.3696 669.509 62.3696C669.196 61.8187 668.695 61.3179 667.881 61.1676C667.693 61.1175 667.443 61.1175 667.255 61.1175C667.005 60.7169 666.692 60.3663 666.128 60.1659C665.314 59.8153 664.5 59.8654 663.874 60.216C663.373 59.8654 662.747 59.7152 661.934 60.0157C661.746 60.0658 661.558 60.1659 661.37 60.2661C661.37 60.2661 661.37 60.2661 661.307 60.2661C660.181 59.7152 658.428 60.7669 657.676 61.418C657.05 61.969 657.113 62.57 657.426 63.1209C656.675 63.6217 656.111 64.3229 656.049 65.2244C655.986 66.2261 656.737 67.1777 657.864 67.5784C657.676 67.6285 657.551 67.7286 657.426 67.8789C657.363 67.9791 657.238 68.0291 657.176 68.0792C656.737 67.328 655.172 67.1777 654.546 68.0291C654.546 68.0291 654.546 68.0792 654.484 68.0792C653.857 68.3296 653.294 68.8305 652.856 69.2812C652.105 70.1327 653.482 70.934 654.484 70.7838C654.797 70.7337 655.047 70.6335 655.297 70.5333C655.485 70.5834 655.673 70.5834 655.861 70.5834C655.986 70.6335 656.049 70.6335 656.174 70.6836C657.301 70.934 658.24 70.6335 659.054 70.0826C659.993 70.0325 660.869 69.4315 661.057 68.5801C661.37 68.53 661.683 68.3797 661.934 68.2295C662.434 67.929 662.747 67.5784 662.998 67.1777C663.123 67.1777 663.311 67.1777 663.436 67.1777C663.624 67.328 663.874 67.4281 664.125 67.4782C664.313 68.3797 664.688 69.3313 665.439 70.0325C665.502 70.5834 665.878 71.0342 666.379 71.3347C666.379 74.4399 666.316 77.5451 666.191 80.6503C665.627 79.0977 664.626 77.5451 664.062 75.9424C664.688 75.6419 665.189 75.2413 665.502 74.7404C665.815 74.3898 666.003 73.9391 666.128 73.6386C666.191 73.4382 666.191 73.1377 666.191 72.8873C666.316 72.3865 666.253 71.7854 665.878 71.2846C665.815 71.1844 665.752 71.1344 665.627 71.0843C665.502 70.8338 665.314 70.6335 665.001 70.4332C663.624 69.6318 661.871 70.5333 661.37 71.6352C661.057 71.5851 660.744 71.535 660.494 71.5851C660.306 71.3848 660.055 71.2345 659.68 71.1844C659.617 71.1844 659.617 71.1844 659.555 71.1844C659.429 71.0342 659.242 70.934 658.991 70.8839C657.864 70.5333 656.737 71.2846 656.737 72.2362C656.737 72.2863 656.737 72.3364 656.737 72.3865C656.675 72.4866 656.612 72.5367 656.55 72.6369C656.236 73.0376 655.986 73.5384 655.986 73.9891C655.673 73.9391 655.36 73.9891 655.11 74.0893C654.797 74.1895 654.546 74.4399 654.421 74.6903C653.857 74.6903 653.357 74.9407 653.106 75.3915C652.981 75.5418 652.981 75.692 652.918 75.8423C652.793 75.9424 652.668 76.0426 652.543 76.1428C651.165 76.1428 650.101 76.9441 650.039 78.1461C650.039 78.4466 650.352 78.7972 650.665 78.8974C652.105 79.3482 653.544 78.9976 654.484 78.2463C654.797 78.096 654.984 77.8456 655.047 77.5952V77.5451C655.61 77.7455 656.299 77.6954 656.863 77.5952C656.612 78.1962 656.988 78.9475 657.864 79.1478C658.866 79.3982 659.617 78.9976 660.055 78.3465C660.368 78.2463 660.681 78.096 660.932 77.9458C661.746 78.3965 662.747 78.3965 663.436 78.9475C663.686 79.3982 664 79.7989 664.313 80.1996C664.813 80.8507 665.064 81.5018 665.252 82.253C664.626 84.9075 665.126 87.9125 665.439 90.6672C665.252 92.7707 665.126 94.8241 665.189 96.9277C665.126 97.3784 665.064 97.7791 665.064 98.1798C664.438 98.3801 664.062 98.931 664.5 99.4319C664.626 99.5821 664.751 99.7324 664.813 99.8826C665.252 100.434 666.191 100.333 666.566 99.7825C667.13 99.7825 667.693 99.7324 668.194 99.5821C668.82 99.3818 668.945 98.6806 668.444 98.3801C668.507 98.2799 668.57 98.1297 668.57 97.9794C668.444 94.0729 667.944 90.1663 667.443 86.2598C667.443 85.4083 667.443 84.5569 667.443 83.7556C667.505 83.5552 667.505 83.3549 667.568 83.2046C667.818 82.253 668.507 81.5018 669.008 80.6503C669.634 79.6987 670.072 78.7471 670.448 77.7455C670.51 77.7955 670.51 77.8456 670.573 77.8957C670.886 78.1962 671.262 78.2463 671.7 78.2964C672.326 78.8974 673.202 79.2981 674.329 79.0977C675.519 79.6987 677.209 78.8974 677.021 77.7955C677.334 77.5952 677.585 77.445 677.835 77.2446C678.086 77.3949 678.399 77.5451 678.774 77.5952C679.087 77.6453 679.4 77.5952 679.651 77.495C680.903 77.495 682.28 77.0944 682.718 76.0927C683.344 74.3397 681.779 73.8389 680.277 73.889ZM665.69 68.6301C665.565 68.8305 665.439 69.0809 665.377 69.2812C665.189 69.131 665.064 68.9307 664.939 68.7303C664.626 68.2796 664.438 67.8288 664.25 67.328C664.939 67.4281 665.752 67.1777 666.128 66.6769C666.128 66.6268 666.191 66.5767 666.191 66.5767C666.191 67.0775 666.191 67.5784 666.191 68.0291C666.066 68.1794 665.878 68.3797 665.69 68.6301ZM663.937 78.3465C663.937 78.2964 663.937 78.2964 663.874 78.2463C663.499 77.6453 662.685 77.5451 661.996 77.3448C661.808 77.2947 661.621 77.2446 661.433 77.1444C661.558 77.0443 661.621 76.9441 661.683 76.7939C661.746 76.7939 661.746 76.7939 661.808 76.7939C662.372 76.6937 662.747 76.3932 662.935 76.0426C662.998 76.0426 663.06 76.0426 663.123 75.9925C663.311 76.7939 663.624 77.5952 664 78.3966C664 78.3966 663.937 78.3965 663.937 78.3465ZM667.067 71.4849C667.192 71.535 667.38 71.5851 667.568 71.5851C667.881 71.8355 668.382 71.9858 668.945 72.0359C668.695 72.3865 668.444 72.737 668.194 73.0876C667.881 73.4883 667.505 73.889 667.255 74.3397C667.192 73.3881 667.13 72.4365 667.067 71.4849ZM667.631 81.1512C667.568 81.2513 667.505 81.4016 667.38 81.5018C667.38 79.4483 667.318 77.3448 667.255 75.2913C667.318 75.1411 667.443 74.9407 667.505 74.7905C667.443 75.2913 667.631 75.7922 668.069 76.1928C668.507 76.5434 669.071 76.7939 669.634 76.9441C669.759 76.9942 669.947 77.0443 670.072 77.0443C669.509 78.4967 668.632 79.7989 667.631 81.1512ZM671.324 73.3381C670.51 72.8873 669.509 72.7871 668.632 73.3381C668.82 73.0876 669.008 72.8372 669.196 72.5868C669.258 72.5868 669.321 72.5868 669.384 72.5367C669.446 72.4866 669.509 72.3865 669.571 72.3364C669.759 72.4866 670.01 72.6369 670.26 72.737C670.385 72.7871 670.448 72.7871 670.573 72.8372C671.199 73.288 671.95 73.3381 672.764 73.1878C672.889 73.288 673.015 73.3881 673.14 73.4883C672.451 73.3881 671.825 73.3381 671.324 73.3381Z" fill="white"/>
<path d="M656.762 81.1286C656.592 81.0246 656.423 80.9553 656.168 80.9553C655.744 80.9553 655.362 80.9206 655.023 80.7819C654.853 80.6779 654.683 80.5739 654.429 80.5392C654.641 80.1232 654.556 79.6378 654.216 79.2911C654.683 78.4937 654.301 77.4882 653.156 77.2455C652.647 76.3094 651.713 75.408 650.568 76.4828C650.44 76.6215 650.313 76.7601 650.271 76.9335C649.889 76.7601 649.422 76.6561 648.998 76.6215C648.743 76.5868 648.531 76.5868 648.319 76.6561C648.107 76.6908 647.895 76.7601 647.683 76.8642C647.64 76.4481 647.598 75.9974 647.555 75.5814C647.598 75.616 647.64 75.6507 647.725 75.6507C647.81 75.6854 647.895 75.72 647.98 75.72C648.574 76.4481 649.762 76.5175 650.61 75.9627C650.695 75.9281 650.78 75.8587 650.822 75.824C651.077 75.9627 651.374 75.9974 651.628 75.8934C652.307 76.0321 652.986 76.0321 653.58 75.616C654.259 75.1306 654.429 74.3332 653.919 73.7438C653.283 72.9811 652.18 73.1198 651.374 73.6051C651.289 73.5011 651.162 73.4318 651.034 73.3625C650.822 73.1198 650.271 72.9811 649.931 73.1198C649.889 73.1198 649.889 73.1544 649.846 73.1544C649.762 73.1544 649.677 73.1544 649.592 73.1544C649.549 73.1544 649.507 73.1544 649.465 73.1544C649.252 72.7731 648.913 72.4264 648.361 72.3223C648.234 72.2877 648.064 72.2877 647.937 72.2877C647.767 72.0103 647.555 71.7676 647.173 71.6289C646.622 71.3862 646.07 71.4209 645.646 71.6636C645.307 71.4209 644.882 71.3169 644.331 71.5249C644.203 71.5596 644.076 71.6289 643.949 71.6983C643.949 71.6983 643.949 71.6983 643.907 71.6983C643.143 71.3169 641.955 72.045 641.446 72.4957C641.021 72.8771 641.064 73.2931 641.276 73.6745C640.767 74.0212 640.385 74.5066 640.343 75.1306C640.3 75.824 640.809 76.4828 641.573 76.7601C641.446 76.7948 641.361 76.8642 641.276 76.9682C641.234 77.0375 641.149 77.0722 641.106 77.1068C640.809 76.5868 639.749 76.4828 639.324 77.0722C639.324 77.0722 639.324 77.1068 639.282 77.1068C638.858 77.2802 638.476 77.6269 638.179 77.9389C637.67 78.5283 638.603 79.0831 639.282 78.979C639.494 78.9444 639.664 78.875 639.833 78.8057C639.961 78.8404 640.088 78.8404 640.215 78.8404C640.3 78.875 640.343 78.875 640.427 78.9097C641.191 79.0831 641.828 78.875 642.379 78.4937C643.016 78.459 643.61 78.0429 643.737 77.4536C643.949 77.4189 644.161 77.3149 644.331 77.2109C644.67 77.0028 644.882 76.7601 645.052 76.4828C645.137 76.4828 645.264 76.4828 645.349 76.4828C645.476 76.5868 645.646 76.6561 645.816 76.6908C645.943 77.3149 646.198 77.9736 646.707 78.459C646.749 78.8404 647.004 79.1524 647.343 79.3604C647.343 81.51 647.301 83.6595 647.216 85.8091C646.834 84.7343 646.155 83.6595 645.773 82.5501C646.198 82.3421 646.537 82.0647 646.749 81.718C646.961 81.4753 647.089 81.1633 647.173 80.9553C647.216 80.8166 647.216 80.6086 647.216 80.4352C647.301 80.0885 647.258 79.6725 647.004 79.3257C646.961 79.2564 646.919 79.2217 646.834 79.1871C646.749 79.0137 646.622 78.875 646.41 78.7364C645.476 78.1816 644.288 78.8057 643.949 79.5684C643.737 79.5338 643.525 79.4991 643.355 79.5338C643.228 79.3951 643.058 79.2911 642.803 79.2564C642.761 79.2564 642.761 79.2564 642.719 79.2564C642.634 79.1524 642.506 79.0831 642.337 79.0484C641.573 78.8057 640.809 79.3258 640.809 79.9845C640.809 80.0192 640.809 80.0538 640.809 80.0885C640.767 80.1578 640.724 80.1925 640.682 80.2619C640.47 80.5392 640.3 80.8859 640.3 81.1979C640.088 81.1633 639.876 81.1979 639.706 81.2673C639.494 81.3366 639.324 81.51 639.239 81.6833C638.858 81.6833 638.518 81.8567 638.348 82.1687C638.264 82.2727 638.264 82.3767 638.221 82.4808C638.136 82.5501 638.051 82.6194 637.967 82.6888C637.033 82.6888 636.312 83.2435 636.27 84.0756C636.27 84.2836 636.482 84.5263 636.694 84.5956C637.67 84.9077 638.645 84.665 639.282 84.1449C639.494 84.0409 639.621 83.8676 639.664 83.6942V83.6595C640.046 83.7982 640.512 83.7636 640.894 83.6942C640.724 84.1103 640.979 84.6303 641.573 84.769C642.252 84.9423 642.761 84.665 643.058 84.2143C643.27 84.1449 643.482 84.0409 643.652 83.9369C644.203 84.2489 644.882 84.2489 645.349 84.6303C645.519 84.9423 645.731 85.2197 645.943 85.4971C646.282 85.9478 646.452 86.3985 646.579 86.9186C646.155 88.7561 646.495 90.8363 646.707 92.7432C646.579 94.1993 646.495 95.6208 646.537 97.077C646.495 97.389 646.452 97.6664 646.452 97.9437C646.028 98.0824 645.773 98.4638 646.07 98.8105C646.155 98.9145 646.24 99.0185 646.282 99.1225C646.579 99.5039 647.216 99.4345 647.47 99.0532C647.852 99.0532 648.234 99.0185 648.574 98.9145C648.998 98.7758 649.083 98.2904 648.743 98.0824C648.786 98.0131 648.828 97.909 648.828 97.805C648.743 95.1007 648.404 92.3965 648.064 89.6922C648.064 89.1028 648.064 88.5134 648.064 87.9587C648.107 87.82 648.107 87.6813 648.149 87.5773C648.319 86.9186 648.786 86.3985 649.125 85.8091C649.549 85.1504 649.846 84.4916 650.101 83.7982C650.143 83.8329 650.143 83.8676 650.186 83.9022C650.398 84.1103 650.652 84.1449 650.949 84.1796C651.374 84.5956 651.968 84.873 652.731 84.7343C653.538 85.1504 654.683 84.5956 654.556 83.8329C654.768 83.6942 654.938 83.5902 655.107 83.4515C655.277 83.5555 655.489 83.6595 655.744 83.6942C655.956 83.7289 656.168 83.6942 656.338 83.6249C657.186 83.6249 658.12 83.3475 658.417 82.6541C658.841 81.4406 657.78 81.0939 656.762 81.1286ZM646.876 77.4882C646.792 77.6269 646.707 77.8003 646.664 77.9389C646.537 77.8349 646.452 77.6962 646.367 77.5576C646.155 77.2455 646.028 76.9335 645.901 76.5868C646.367 76.6561 646.919 76.4828 647.173 76.1361C647.173 76.1014 647.216 76.0667 647.216 76.0667C647.216 76.4134 647.216 76.7601 647.216 77.0722C647.131 77.1762 647.004 77.3149 646.876 77.4882ZM645.688 84.2143C645.688 84.1796 645.688 84.1796 645.646 84.1449C645.391 83.7289 644.84 83.6595 644.373 83.5209C644.246 83.4862 644.119 83.4515 643.991 83.3822C644.076 83.3128 644.119 83.2435 644.161 83.1395C644.203 83.1395 644.204 83.1395 644.246 83.1395C644.628 83.0701 644.882 82.8621 645.01 82.6194C645.052 82.6194 645.094 82.6194 645.137 82.5848C645.264 83.1395 645.476 83.6942 645.731 84.2489C645.731 84.2489 645.688 84.2489 645.688 84.2143ZM647.81 79.4644C647.895 79.4991 648.022 79.5338 648.149 79.5338C648.361 79.7071 648.701 79.8111 649.083 79.8458C648.913 80.0885 648.743 80.3312 648.574 80.5739C648.361 80.8512 648.107 81.1286 647.937 81.4406C647.895 80.7819 647.852 80.1232 647.81 79.4644ZM648.192 86.1558C648.149 86.2251 648.107 86.3292 648.022 86.3985C648.022 84.977 647.98 83.5209 647.937 82.0994C647.98 81.9954 648.064 81.8567 648.107 81.7527C648.064 82.0994 648.192 82.4461 648.489 82.7234C648.786 82.9661 649.168 83.1395 649.549 83.2435C649.634 83.2782 649.762 83.3128 649.846 83.3128C649.465 84.3183 648.871 85.2197 648.192 86.1558ZM650.695 80.7472C650.143 80.4352 649.465 80.3659 648.871 80.7472C648.998 80.5739 649.125 80.4005 649.252 80.2272C649.295 80.2272 649.337 80.2272 649.38 80.1925C649.422 80.1578 649.465 80.0885 649.507 80.0538C649.634 80.1578 649.804 80.2619 649.974 80.3312C650.059 80.3659 650.101 80.3659 650.186 80.4005C650.61 80.7126 651.119 80.7472 651.671 80.6432C651.756 80.7126 651.84 80.7819 651.925 80.8512C651.459 80.7819 651.034 80.7472 650.695 80.7472Z" fill="white"/>
<path d="M208.246 77.6069C207.487 76.7285 206.456 76.1576 205.1 76.2015C204.721 76.2015 204.504 76.465 204.449 76.7285C204.395 76.7285 204.395 76.7285 204.341 76.7285C204.287 76.6846 204.287 76.6407 204.232 76.5968C204.558 76.3332 204.721 75.9819 204.558 75.6744C204.287 75.0156 205.046 74.4886 204.178 73.8737C204.178 73.0831 203.419 72.4682 202.768 71.8094C202.442 71.5019 201.683 71.4141 201.249 71.6337C201.14 71.3702 200.923 71.1067 200.598 70.8431C199.947 70.2722 199.459 69.262 198.483 69.0424C198.483 68.9985 198.483 68.9985 198.537 68.9545C198.916 68.8228 199.242 68.5592 199.296 68.164C199.459 67.5051 198.808 66.8024 197.94 66.9781C197.832 66.5389 197.56 66.1436 197.181 65.8362H197.235C197.994 65.7483 197.832 64.9138 197.235 64.7381C197.506 64.826 197.072 64.1672 197.018 64.1232C196.801 63.9476 196.53 63.8158 196.313 63.728C196.042 63.6401 195.77 63.5962 195.499 63.5962C195.336 63.3766 195.119 63.157 194.794 63.0691C194.306 62.9374 193.818 63.0252 193.438 63.2448C192.895 63.3327 192.57 63.684 192.57 64.0354C192.299 64.1232 192.028 64.2111 192.028 64.2111C191.594 64.3428 191.322 64.6503 191.322 64.9577C190.943 64.9138 190.617 64.826 190.238 64.6942C189.695 64.4746 188.773 64.826 189.044 65.4409C189.315 66.0558 189.804 66.2754 190.509 66.5828C190.997 66.7585 191.485 66.9342 192.028 67.022C192.516 67.1099 193.167 67.0659 193.655 67.1977C193.818 67.2416 193.98 67.3295 194.197 67.4173C194.36 67.9444 194.686 68.3836 195.282 68.691C195.77 68.9545 196.259 68.9985 196.747 68.9106C196.747 68.9545 196.801 68.9985 196.801 69.0424C196.801 69.0863 196.801 69.1302 196.855 69.2181C196.638 69.2181 196.421 69.262 196.15 69.3059C195.933 69.3498 195.716 69.5255 195.499 69.6133C195.499 69.5694 195.499 69.5255 195.499 69.5255C195.391 69.2181 195.119 68.8228 194.848 68.6032C194.631 68.4714 194.414 68.3396 194.197 68.2518C193.492 67.4173 192.245 67.1099 191.214 67.5051C191.051 67.5051 190.834 67.5491 190.671 67.6369C190.509 67.6808 190.346 67.7687 190.238 67.8565C188.881 67.5051 186.549 67.5051 185.952 68.9106C185.681 69.5255 185.898 70.0086 186.332 70.3161C186.278 70.5796 186.278 70.8871 186.386 71.1945C186.332 71.3263 186.278 71.458 186.278 71.5898C185.627 71.5459 185.084 71.7655 184.922 72.4682C184.867 72.7317 184.867 72.9513 184.922 73.1709C184.867 73.2149 184.759 73.3027 184.705 73.3905H184.65C183.945 73.0831 183.132 73.0831 182.426 73.4345C182.101 73.6101 181.83 73.7858 181.559 74.0054C180.203 74.1372 179.226 75.2352 178.792 76.3332C178.304 77.6069 179.769 78.3975 181.179 78.2658C182.101 78.1779 182.969 77.9144 183.674 77.3873C183.837 77.2556 184 77.1238 184.162 76.9921C184.542 77.0799 184.922 77.0799 185.356 77.036C185.084 77.2117 184.867 77.4752 184.705 77.7826C184.542 78.134 184.596 78.661 185.193 78.7489C186.115 78.8807 186.929 78.7489 187.58 78.3536C188.339 78.2218 188.61 77.4752 188.881 76.8164C188.936 76.8603 188.99 76.9042 189.044 76.9481C189.261 77.1238 189.532 77.1677 189.804 77.1238C189.966 79.4955 190.563 81.7355 191.268 84.1951C191.268 84.239 191.322 84.239 191.322 84.2829C191.322 85.6005 191.322 86.8743 191.322 88.1919C191.377 90.6514 191.431 93.111 191.594 95.5706C191.702 96.9761 191.756 98.4254 192.787 99.5235C192.787 99.6113 192.787 99.6991 192.787 99.787C192.841 100.314 193.926 100.534 194.035 99.9187C194.794 95.5267 194.74 90.9589 195.119 86.5229C195.174 86.1276 195.174 85.6884 195.228 85.2931C195.391 84.2829 195.553 83.4484 196.15 82.4822C196.53 81.8673 196.855 81.3841 197.072 80.7253C197.506 79.4955 197.832 78.2218 198.103 76.9481C198.645 76.9921 199.133 76.9481 199.622 76.7725C199.676 76.7725 199.676 76.7724 199.73 76.8164C199.513 77.036 199.35 77.2556 199.188 77.563C199.025 77.9583 199.405 78.4414 199.839 78.5293C200.49 78.661 201.032 78.6171 201.683 78.6171C201.791 78.6171 201.954 78.6171 202.063 78.6611C202.063 78.7489 202.117 78.7928 202.117 78.8807C202.225 79.1442 202.605 79.3199 202.931 79.1881C203.69 79.4955 204.558 79.4516 205.154 78.8807C206.022 78.8367 206.945 78.7489 207.758 78.6171C208.246 78.3536 208.518 77.9144 208.246 77.6069ZM187.959 76.6846C187.851 76.6407 187.797 76.5968 187.634 76.5528C187.688 76.5089 187.688 76.465 187.688 76.4211C187.851 76.3772 187.959 76.2893 188.068 76.2015C188.122 76.2015 188.122 76.2015 188.176 76.2015C188.122 76.3332 188.068 76.5089 187.959 76.6846ZM191.322 82.7457C190.834 80.7692 190.346 78.9246 190.129 76.9481C190.238 76.9042 190.346 76.8164 190.4 76.6846C190.617 76.2893 190.671 76.2015 190.78 75.8062C190.834 75.4987 190.726 75.2352 190.509 75.1035C190.943 74.9717 191.268 74.7521 191.594 74.4886C191.485 77.2556 191.377 80.0226 191.322 82.7457ZM195.336 74.5764C195.282 74.5764 195.174 74.5764 195.011 74.5764C194.794 74.269 194.252 74.0933 193.818 74.269C193.167 74.5325 193.112 74.5764 192.57 74.9717C192.028 75.367 192.516 76.0258 193.112 76.0697C193.329 76.2893 193.763 76.4211 194.089 76.3332C194.523 76.2454 194.902 76.2454 195.228 76.2454C195.282 76.2893 195.282 76.2893 195.282 76.3332C194.74 79.4077 194.197 82.4822 193.872 85.5566C193.601 87.8844 193.275 90.2562 193.058 92.6279C192.353 86.435 192.245 80.1544 192.082 74.0054C192.136 73.9176 192.19 73.7858 192.245 73.698C193.004 73.8298 193.818 73.8298 194.631 73.6541C194.74 74.0054 195.011 74.3568 195.391 74.5764H195.336ZM196.15 81.5159C195.933 81.9112 195.662 82.2626 195.499 82.57C195.662 80.5936 195.825 78.661 195.987 76.6846C196.421 76.8164 196.855 76.7285 197.289 76.5968C197.506 76.6846 197.669 76.7285 197.886 76.7725C197.452 78.4414 197.018 80.1104 196.15 81.5159ZM205.751 77.6948C205.751 77.6069 205.751 77.4752 205.697 77.3873C205.914 77.4313 206.131 77.5191 206.294 77.6069C206.131 77.6509 205.914 77.6948 205.751 77.6948Z" fill="white"/>
<path d="M278.294 74.4022C277.417 73.4005 276.228 72.7494 274.663 72.7995C274.224 72.7995 273.974 73.1 273.911 73.4005C273.849 73.4005 273.849 73.4005 273.786 73.4005C273.724 73.3504 273.724 73.3003 273.661 73.2503C274.037 72.9498 274.224 72.5491 274.037 72.1985C273.724 71.4472 274.6 70.8462 273.598 70.145C273.598 69.2435 272.722 68.5424 271.971 67.7911C271.595 67.4405 270.719 67.3403 270.218 67.5908C270.092 67.2902 269.842 66.9897 269.466 66.6892C268.715 66.0381 268.152 64.8862 267.025 64.6358C267.025 64.5857 267.025 64.5857 267.087 64.5356C267.526 64.3854 267.901 64.0849 267.964 63.6341C268.152 62.8828 267.4 62.0815 266.399 62.2818C266.274 61.781 265.961 61.3302 265.522 60.9796H265.585C266.461 60.8795 266.274 59.9279 265.585 59.7275C265.898 59.8277 265.397 59.0765 265.334 59.0264C265.084 58.826 264.771 58.6758 264.521 58.5756C264.208 58.4754 263.895 58.4254 263.582 58.4254C263.394 58.1749 263.143 57.9245 262.768 57.8243C262.204 57.6741 261.641 57.7743 261.203 58.0247C260.576 58.1249 260.201 58.5255 260.201 58.9262C259.888 59.0264 259.575 59.1265 259.575 59.1265C259.074 59.2768 258.761 59.6274 258.761 59.978C258.323 59.9279 257.947 59.8277 257.509 59.6775C256.883 59.427 255.818 59.8277 256.132 60.5289C256.445 61.2301 257.008 61.4805 257.822 61.8311C258.385 62.0314 258.949 62.2318 259.575 62.3319C260.138 62.4321 260.89 62.382 261.453 62.5323C261.641 62.5823 261.829 62.6825 262.079 62.7827C262.267 63.3837 262.642 63.8845 263.331 64.2351C263.895 64.5356 264.458 64.5857 265.021 64.4855C265.021 64.5356 265.084 64.5857 265.084 64.6358C265.084 64.6859 265.084 64.736 265.147 64.8361C264.896 64.8361 264.646 64.8862 264.333 64.9363C264.082 64.9864 263.832 65.1867 263.582 65.2869C263.582 65.2368 263.582 65.1867 263.582 65.1867C263.456 64.8361 263.143 64.3854 262.83 64.135C262.58 63.9847 262.329 63.8344 262.079 63.7343C261.265 62.7827 259.825 62.4321 258.636 62.8828C258.448 62.8828 258.197 62.9329 258.01 63.0331C257.822 63.0832 257.634 63.1834 257.509 63.2835C255.944 62.8828 253.252 62.8828 252.563 64.4855C252.25 65.1867 252.5 65.7376 253.001 66.0882C252.939 66.3887 252.939 66.7393 253.064 67.0899C253.001 67.2402 252.939 67.3904 252.939 67.5407C252.187 67.4906 251.561 67.741 251.374 68.5424C251.311 68.8429 251.311 69.0933 251.374 69.3437C251.311 69.3938 251.186 69.4939 251.123 69.5941H251.06C250.247 69.2435 249.308 69.2435 248.494 69.6442C248.118 69.8445 247.805 70.0449 247.492 70.2953C245.927 70.4456 244.8 71.6977 244.299 72.9498C243.736 74.4022 245.426 75.3037 247.054 75.1535C248.118 75.0533 249.12 74.7528 249.934 74.1518C250.121 74.0015 250.309 73.8513 250.497 73.701C250.935 73.8012 251.374 73.8012 251.874 73.7511C251.561 73.9514 251.311 74.2519 251.123 74.6025C250.935 75.0032 250.998 75.6042 251.687 75.7044C252.751 75.8546 253.69 75.7044 254.441 75.2536C255.318 75.1034 255.631 74.2519 255.944 73.5007C256.006 73.5508 256.069 73.6008 256.132 73.6509C256.382 73.8513 256.695 73.9014 257.008 73.8513C257.196 76.5558 257.884 79.1101 258.698 81.9148C258.698 81.9649 258.761 81.9649 258.761 82.015C258.761 83.5175 258.761 84.9699 258.761 86.4725C258.824 89.2772 258.886 92.0819 259.074 94.8866C259.199 96.4893 259.262 98.1421 260.451 99.3942C260.451 99.4943 260.451 99.5945 260.451 99.6947C260.514 100.296 261.766 100.546 261.891 99.8449C262.768 94.8365 262.705 89.6278 263.143 84.5693C263.206 84.1185 263.206 83.6177 263.268 83.1669C263.456 82.015 263.644 81.0634 264.333 79.9615C264.771 79.2604 265.147 78.7094 265.397 77.9582C265.898 76.5558 266.274 75.1034 266.587 73.6509C267.213 73.701 267.776 73.6509 268.34 73.4506C268.402 73.4506 268.402 73.4506 268.465 73.5007C268.214 73.7511 268.026 74.0015 267.839 74.3521C267.651 74.8029 268.089 75.3538 268.59 75.454C269.341 75.6042 269.967 75.5541 270.719 75.5541C270.844 75.5541 271.032 75.5541 271.157 75.6042C271.157 75.7044 271.219 75.7545 271.219 75.8546C271.345 76.1551 271.783 76.3555 272.158 76.2052C273.035 76.5558 274.037 76.5057 274.725 75.8546C275.727 75.8045 276.791 75.7044 277.73 75.5541C278.294 75.2536 278.607 74.7528 278.294 74.4022ZM254.879 73.3003C254.754 73.2503 254.692 73.2002 254.504 73.1501C254.566 73.1 254.566 73.0499 254.566 72.9998C254.754 72.9498 254.879 72.8496 255.005 72.7494C255.067 72.7494 255.067 72.7494 255.13 72.7494C255.067 72.9498 255.005 73.1501 254.879 73.3003ZM258.824 80.262C258.26 78.0083 257.697 75.9047 257.446 73.6509C257.571 73.6008 257.697 73.5007 257.759 73.3504C258.01 72.8997 258.072 72.7995 258.197 72.3487C258.26 71.9982 258.135 71.6977 257.884 71.5474C258.385 71.3971 258.761 71.1467 259.137 70.8462C258.949 74.0015 258.824 77.1067 258.824 80.262ZM263.394 70.9464C263.331 70.9464 263.206 70.9464 263.018 70.9464C262.768 70.5958 262.142 70.3955 261.641 70.5958C260.889 70.8963 260.827 70.9464 260.201 71.3971C259.575 71.8479 260.138 72.5992 260.827 72.6493C261.077 72.8997 261.578 73.0499 261.954 72.9498C262.455 72.8496 262.893 72.8496 263.268 72.8496C263.331 72.8997 263.331 72.8997 263.331 72.9498C262.705 76.4556 262.079 79.9615 261.703 83.4674C261.39 86.1219 261.015 88.8264 260.764 91.531C259.95 84.4691 259.825 77.3071 259.637 70.2953C259.7 70.1951 259.763 70.0449 259.825 69.9447C260.702 70.095 261.641 70.095 262.58 69.8946C262.705 70.2953 263.018 70.696 263.456 70.9464C263.456 70.8963 263.394 70.9464 263.394 70.9464ZM264.333 78.8597C264.082 79.3104 263.769 79.7111 263.582 80.0617C263.769 77.8079 263.957 75.6042 264.145 73.3504C264.646 73.5007 265.147 73.4005 265.647 73.2503C265.898 73.3504 266.086 73.4005 266.336 73.4506C265.835 75.3037 265.334 77.257 264.333 78.8597ZM275.414 74.5024C275.414 74.4022 275.414 74.2519 275.351 74.1518C275.602 74.2019 275.852 74.302 276.04 74.4022C275.852 74.4523 275.602 74.4523 275.414 74.5024Z" fill="white"/>
<path d="M0.196995 74.4022C1.07346 73.4005 2.26295 72.7494 3.82808 72.7995C4.26632 72.7995 4.51675 73.1 4.57935 73.4005C4.64196 73.4005 4.64197 73.4005 4.70457 73.4005C4.76718 73.3504 4.76716 73.3003 4.82977 73.2503C4.45414 72.9498 4.26632 72.5491 4.45413 72.1985C4.76716 71.4472 3.8907 70.8462 4.89238 70.145C4.89238 69.2435 5.76885 68.5424 6.52011 67.7911C6.89575 67.4405 7.77221 67.3403 8.27305 67.5908C8.39826 67.2902 8.64869 66.9897 9.02432 66.6892C9.77558 66.0381 10.339 64.8862 11.4659 64.6358C11.4659 64.5857 11.4659 64.5857 11.4033 64.5356C10.9651 64.3854 10.5894 64.0849 10.5268 63.6341C10.339 62.8828 11.0903 62.0815 12.092 62.2818C12.2172 61.781 12.5302 61.3302 12.9684 60.9796H12.9058C12.0294 60.8795 12.2172 59.9279 12.9058 59.7275C12.5928 59.8277 13.0937 59.0765 13.1563 59.0264C13.4067 58.826 13.7197 58.6758 13.9701 58.5756C14.2831 58.4754 14.5962 58.4254 14.9092 58.4254C15.097 58.1749 15.3474 57.9245 15.7231 57.8243C16.2865 57.6741 16.85 57.7743 17.2882 58.0247C17.9142 58.1249 18.2899 58.5255 18.2899 58.9262C18.6029 59.0264 18.9159 59.1265 18.9159 59.1265C19.4168 59.2768 19.7298 59.6274 19.7298 59.978C20.168 59.9279 20.5437 59.8277 20.9819 59.6775C21.608 59.427 22.6722 59.8277 22.3592 60.5289C22.0462 61.2301 21.4827 61.4805 20.6689 61.8311C20.1054 62.0314 19.542 62.2318 18.9159 62.3319C18.3525 62.4321 17.6012 62.382 17.0378 62.5323C16.85 62.5823 16.6621 62.6825 16.4117 62.7827C16.2239 63.3837 15.8483 63.8845 15.1596 64.2351C14.5962 64.5356 14.0327 64.5857 13.4693 64.4855C13.4693 64.5356 13.4067 64.5857 13.4067 64.6358C13.4067 64.6859 13.4067 64.736 13.3441 64.8361C13.5945 64.8361 13.8449 64.8862 14.1579 64.9363C14.4084 64.9864 14.6588 65.1867 14.9092 65.2869C14.9092 65.2368 14.9092 65.1867 14.9092 65.1867C15.0344 64.8361 15.3474 64.3854 15.6605 64.135C15.9109 63.9847 16.1613 63.8344 16.4117 63.7343C17.2256 62.7827 18.6655 62.4321 19.855 62.8828C20.0428 62.8828 20.2932 62.9329 20.4811 63.0331C20.6689 63.0832 20.8567 63.1834 20.9819 63.2835C22.547 62.8828 25.2391 62.8828 25.9277 64.4855C26.2407 65.1867 25.9903 65.7376 25.4895 66.0882C25.5521 66.3887 25.5521 66.7393 25.4269 67.0899C25.4895 67.2402 25.5521 67.3904 25.5521 67.5407C26.3033 67.4906 26.9294 67.741 27.1172 68.5424C27.1798 68.8429 27.1798 69.0933 27.1172 69.3437C27.1798 69.3938 27.305 69.4939 27.3676 69.5941H27.4302C28.2441 69.2435 29.1832 69.2435 29.997 69.6442C30.3727 69.8445 30.6857 70.0449 30.9987 70.2953C32.5639 70.4456 33.6907 71.6977 34.1916 72.9498C34.755 74.4022 33.0647 75.3037 31.437 75.1535C30.3727 75.0533 29.371 74.7528 28.5571 74.1518C28.3693 74.0015 28.1815 73.8513 27.9937 73.701C27.5554 73.8012 27.1172 73.8012 26.6164 73.7511C26.9294 73.9514 27.1798 74.2519 27.3676 74.6025C27.5554 75.0032 27.4928 75.6042 26.8042 75.7044C25.7399 75.8546 24.8008 75.7044 24.0496 75.2536C23.1731 75.1034 22.8601 74.2519 22.547 73.5007C22.4844 73.5508 22.4218 73.6008 22.3592 73.6509C22.1088 73.8513 21.7958 73.9014 21.4827 73.8513C21.2949 76.5558 20.6063 79.1101 19.7924 81.9148C19.7924 81.9649 19.7298 81.9649 19.7298 82.015C19.7298 83.5175 19.7298 84.9699 19.7298 86.4725C19.6672 89.2772 19.6046 92.0819 19.4168 94.8866C19.2916 96.4893 19.229 98.1421 18.0395 99.3942C18.0395 99.4943 18.0395 99.5945 18.0395 99.6947C17.9769 100.296 16.7248 100.546 16.5995 99.8449C15.7231 94.8365 15.7857 89.6278 15.3474 84.5693C15.2848 84.1185 15.2848 83.6177 15.2222 83.1669C15.0344 82.015 14.8466 81.0634 14.1579 79.9615C13.7197 79.2604 13.3441 78.7094 13.0937 77.9582C12.5928 76.5558 12.2172 75.1034 11.9042 73.6509C11.2781 73.701 10.7147 73.6509 10.1512 73.4506C10.0886 73.4506 10.0886 73.4506 10.026 73.5007C10.2764 73.7511 10.4642 74.0015 10.6521 74.3521C10.8399 74.8029 10.4016 75.3538 9.90079 75.454C9.14953 75.6042 8.52348 75.5541 7.77222 75.5541C7.64701 75.5541 7.45918 75.5541 7.33397 75.6042C7.33397 75.7044 7.27137 75.7545 7.27137 75.8546C7.14616 76.1551 6.70792 76.3555 6.33229 76.2052C5.45582 76.5558 4.45415 76.5057 3.76549 75.8546C2.76381 75.8045 1.69951 75.7044 0.760437 75.5541C0.196991 75.2536 -0.116032 74.7528 0.196995 74.4022ZM23.6113 73.3003C23.7365 73.2503 23.7991 73.2002 23.9869 73.1501C23.9243 73.1 23.9243 73.0499 23.9243 72.9998C23.7365 72.9498 23.6113 72.8496 23.4861 72.7494C23.4235 72.7494 23.4235 72.7494 23.3609 72.7494C23.4235 72.9498 23.4861 73.1501 23.6113 73.3003ZM19.6672 80.262C20.2306 78.0083 20.7941 75.9047 21.0445 73.6509C20.9193 73.6008 20.7941 73.5007 20.7315 73.3504C20.481 72.8997 20.4185 72.7995 20.2932 72.3487C20.2306 71.9982 20.3559 71.6977 20.6063 71.5474C20.1054 71.3971 19.7298 71.1467 19.3542 70.8462C19.542 74.0015 19.6672 77.1067 19.6672 80.262ZM15.097 70.9464C15.1596 70.9464 15.2848 70.9464 15.4726 70.9464C15.7231 70.5958 16.3491 70.3955 16.85 70.5958C17.6012 70.8963 17.6638 70.9464 18.2899 71.3971C18.9159 71.8479 18.3525 72.5992 17.6638 72.6493C17.4134 72.8997 16.9126 73.0499 16.5369 72.9498C16.0361 72.8496 15.5979 72.8496 15.2222 72.8496C15.1596 72.8997 15.1596 72.8997 15.1596 72.9498C15.7857 76.4556 16.4117 79.9615 16.7874 83.4674C17.1004 86.1219 17.476 88.8264 17.7264 91.531C18.5403 84.4691 18.6655 77.3071 18.8533 70.2953C18.7907 70.1951 18.7281 70.0449 18.6655 69.9447C17.789 70.095 16.85 70.095 15.9109 69.8946C15.7857 70.2953 15.4727 70.696 15.0344 70.9464C15.0344 70.8963 15.097 70.9464 15.097 70.9464ZM14.1579 78.8597C14.4084 79.3104 14.7214 79.7111 14.9092 80.0617C14.7214 77.8079 14.5336 75.6042 14.3458 73.3504C13.8449 73.5007 13.3441 73.4005 12.8432 73.2503C12.5928 73.3504 12.405 73.4005 12.1546 73.4506C12.6554 75.3037 13.1562 77.257 14.1579 78.8597ZM3.07683 74.5024C3.07683 74.4022 3.07684 74.2519 3.13944 74.1518C2.88902 74.2019 2.6386 74.302 2.45078 74.4022C2.6386 74.4523 2.88902 74.4523 3.07683 74.5024Z" fill="white"/>
<path d="M260.87 98.3765C260.494 98.3265 260.119 98.3265 259.806 98.3765C259.743 97.8757 259.43 97.3749 258.867 97.0744C258.867 96.0226 257.552 95.3715 256.425 95.5217C256.237 95.1211 255.924 94.7705 255.361 94.6202C254.547 94.3698 253.295 94.6703 252.606 95.071C252.293 95.2713 252.043 95.5718 251.917 95.9224C251.542 95.8223 251.104 95.7722 250.665 95.8723C250.415 95.9224 250.165 96.0226 249.977 96.1228C249.351 95.8223 248.599 95.8223 247.973 96.3732C247.598 96.7238 247.41 97.4249 247.535 97.9759C247.159 98.026 246.721 98.1261 246.346 98.2764C245.219 98.677 245.657 100.029 246.659 100.28C246.909 100.33 247.159 100.38 247.41 100.43C247.472 100.73 247.848 101.031 248.286 100.981C248.474 100.981 249.1 100.881 249.664 100.831C249.914 100.881 250.102 100.881 250.352 100.831C250.478 101.031 250.791 101.231 251.104 101.231C251.479 101.181 251.73 101.131 251.917 100.931C251.98 100.931 252.043 100.881 252.043 100.881C252.481 101.131 252.919 101.281 253.42 101.181C253.733 101.332 254.109 101.532 254.359 101.532C254.985 101.532 255.361 101.231 255.924 101.231C256.675 101.231 257.427 101.281 258.178 101.231C258.303 101.231 258.491 101.281 258.616 101.231C258.679 101.231 258.741 101.231 258.741 101.181C259.43 101.131 260.056 100.981 260.62 100.68C261.872 100.129 262.435 98.677 260.87 98.3765Z" fill="white"/>
<path d="M17.6207 98.3765C17.9964 98.3265 18.372 98.3265 18.685 98.3765C18.7476 97.8757 19.0606 97.3749 19.6241 97.0744C19.6241 96.0226 20.9388 95.3715 22.0657 95.5217C22.2535 95.1211 22.5665 94.7705 23.13 94.6202C23.9439 94.3698 25.196 94.6703 25.8846 95.071C26.1976 95.2713 26.4481 95.5718 26.5733 95.9224C26.9489 95.8223 27.3871 95.7722 27.8254 95.8723C28.0758 95.9224 28.3262 96.0226 28.514 96.1228C29.1401 95.8223 29.8913 95.8223 30.5174 96.3732C30.893 96.7238 31.0808 97.4249 30.9556 97.9759C31.3313 98.026 31.7695 98.1261 32.1451 98.2764C33.272 98.677 32.8338 100.029 31.8321 100.28C31.5817 100.33 31.3313 100.38 31.0808 100.43C31.0182 100.73 30.6426 101.031 30.2044 100.981C30.0165 100.981 29.3905 100.881 28.8271 100.831C28.5766 100.881 28.3888 100.881 28.1384 100.831C28.0132 101.031 27.7002 101.231 27.3871 101.231C27.0115 101.181 26.7611 101.131 26.5733 100.931C26.5107 100.931 26.4481 100.881 26.4481 100.881C26.0098 101.131 25.5716 101.281 25.0708 101.181C24.7577 101.332 24.3821 101.532 24.1317 101.532C23.5056 101.532 23.13 101.231 22.5665 101.231C21.8153 101.231 21.064 101.281 20.3128 101.231C20.1875 101.231 19.9997 101.281 19.8745 101.231C19.8119 101.231 19.7493 101.231 19.7493 101.181C19.0607 101.131 18.4346 100.981 17.8712 100.68C16.6191 100.129 16.0556 98.677 17.6207 98.3765Z" fill="white"/>
<path d="M210.638 97.9267C210.2 97.8265 209.824 97.8766 209.386 97.9267C209.323 97.3257 208.948 96.7747 208.322 96.4241C208.322 95.2221 206.819 94.4208 205.504 94.6211C205.254 94.1704 204.941 93.7697 204.252 93.5694C203.313 93.3189 201.873 93.6194 201.122 94.0702C200.746 94.3206 200.433 94.6712 200.308 95.0719C199.87 94.9216 199.369 94.9216 198.868 95.0218C198.555 95.0719 198.305 95.172 198.054 95.3223C197.303 94.9717 196.489 94.9717 195.801 95.6228C195.362 96.0235 195.174 96.8248 195.3 97.4759C194.861 97.5761 194.361 97.6763 193.922 97.8265C192.608 98.2773 193.109 99.8299 194.298 100.13C194.548 100.18 194.861 100.281 195.174 100.331C195.237 100.681 195.675 101.032 196.176 100.932C196.364 100.882 197.115 100.781 197.804 100.731C198.054 100.781 198.367 100.781 198.618 100.731C198.806 100.982 199.119 101.182 199.494 101.182C199.932 101.132 200.183 101.082 200.433 100.832C200.496 100.832 200.559 100.781 200.621 100.781C201.122 101.082 201.623 101.232 202.186 101.082C202.562 101.232 203 101.483 203.313 101.483C204.002 101.533 204.44 101.132 205.129 101.132C205.943 101.132 206.882 101.182 207.758 101.132C207.946 101.182 208.071 101.182 208.259 101.132C208.322 101.132 208.384 101.132 208.447 101.082C209.198 101.032 209.949 100.882 210.638 100.481C211.765 99.93 212.453 98.2773 210.638 97.9267Z" fill="white"/>
<path d="M389.826 94.9033C389.075 94.9534 388.324 95.0034 387.635 95.1537C387.322 94.8532 386.946 94.6028 386.446 94.5026C386.132 94.4525 385.882 94.4024 385.569 94.4525C385.444 94.3023 385.319 94.2021 385.131 94.1019C385.381 93.2505 385.193 92.4492 384.254 91.8481C383.315 91.2471 382.001 91.2471 380.999 91.6979C380.623 91.4976 380.185 91.3974 379.622 91.3974C378.745 91.3974 377.931 91.748 377.493 92.349C377.368 92.4992 377.305 92.6495 377.243 92.7997C376.992 92.7997 376.679 92.8498 376.491 92.95C376.366 92.95 376.241 92.8999 376.116 92.8999C374.175 92.6996 372.798 93.7513 372.485 95.0034C372.422 95.0034 372.359 95.0535 372.297 95.0535C371.608 94.753 370.794 94.8031 370.231 95.3039C369.417 96.0051 369.104 96.9567 369.73 97.8582C369.855 98.0586 370.106 98.2589 370.293 98.3591C370.606 98.5594 370.919 98.7097 371.295 98.7598C371.859 99.7614 373.611 100.062 374.488 99.3107C377.368 99.511 380.31 99.511 383.19 99.2105C385.193 100.012 387.885 99.3107 389.764 98.6095C390.327 98.4092 390.515 98.0085 390.452 97.6579C390.765 97.3073 391.016 96.9066 391.204 96.4058C391.391 95.6545 390.703 94.8532 389.826 94.9033Z" fill="white"/>
</svg>
