<svg width="61" height="60" viewBox="0 0 61 60" fill="none">
    <path
        d="M60.3519 30.8099C60.2815 23.3099 57.3589 16.2324 52.0773 10.8803C47.4646 6.23244 41.4787 3.34512 35.035 2.57047C34.0139 2.42963 32.9575 2.21836 32.0068 1.86624C29.0491 0.845118 22.8871 -0.845024 16.4082 0.528216C7.46457 2.42963 -3.59177 10.2465 1.12654 23.0986H1.16176C2.39415 20.5282 4.64767 16.3381 8.1688 11.7958C15.1406 2.71132 23.3096 3.48596 23.3096 3.48596C23.204 3.52117 23.0984 3.55639 22.9927 3.5916C22.7463 3.62681 22.4998 3.69723 22.2885 3.80286C22.1829 3.87329 22.0772 3.9085 21.9364 3.94371C21.5491 4.08455 21.197 4.2254 20.8096 4.36624C20.7392 4.40146 20.704 4.40146 20.6336 4.43667C20.3519 4.5423 20.035 4.68315 19.7533 4.82399C19.5772 4.89441 19.4012 4.96484 19.2603 5.07047C19.0843 5.14089 18.9082 5.24653 18.7674 5.31695C18.4505 5.45779 18.1336 5.63385 17.8167 5.80991C17.7815 5.80991 17.7463 5.84512 17.7111 5.84512C15.5632 7.00709 13.697 8.38033 12.1125 9.82399C12.0773 9.8592 12.0772 9.85921 12.042 9.89442C11.8308 10.1057 11.5843 10.317 11.373 10.5282C7.57021 14.2254 4.78852 18.9789 3.45049 24.2958C3.45049 24.331 3.41528 24.3663 3.41528 24.4015C2.88711 26.5846 2.60542 28.8381 2.60542 31.1972C2.60542 32.7465 2.74626 34.2958 2.95753 35.7747C2.95753 35.7747 3.52091 39.1198 4.75331 42.1832C8.97866 52.7113 19.4012 60.0705 31.4434 60.0705C47.2885 60.0705 60.1406 47.0071 60.2815 31.1972L60.3519 30.8099ZM7.07725 29.3663C7.07725 28.3451 7.11246 27.4296 7.21809 26.4437H7.35894C7.35894 26.4437 16.5139 26.655 20.6336 18.0634C23.3801 12.3944 26.0209 7.53526 28.873 4.78878C29.7181 3.97892 30.704 3.38033 31.7956 2.99301C32.4998 2.74653 33.2392 2.6761 33.9787 2.71132C40.7744 3.30991 47.0773 6.23244 51.866 11.0916C57.0068 16.3029 59.8942 23.1691 60.035 30.493C59.9998 30.493 59.9646 30.493 59.9294 30.493H42.2885V27.324C42.2885 27.1127 42.1125 26.9719 41.9364 26.9719H39.2956V19.0493C40.1758 19.3662 40.8449 19.7536 41.2674 20.1761H41.373L33.5913 13.486V7.71132C33.5913 7.50005 33.4153 7.3592 33.2392 7.3592C33.0632 7.3592 32.8871 7.53526 32.8871 7.71132V13.486L25.1406 20.2113H25.2463C25.6336 19.7888 26.3378 19.4015 27.2181 19.0846V27.0071H24.2603C24.0491 27.0071 23.9082 27.1832 23.9082 27.3592V30.5282H7.11246C7.07725 30.1057 7.07725 29.7536 7.07725 29.3663ZM27.9223 18.8029C29.366 18.3803 31.2322 18.1339 33.2744 18.1339C35.3167 18.1339 37.1829 18.3803 38.6265 18.8029C38.6265 18.8381 38.5913 18.8733 38.5913 18.9085V26.9719H27.9223V18.9085C27.9223 18.8733 27.9223 18.8381 27.9223 18.8029ZM33.7322 55.986C19.6477 55.986 8.13359 45.0705 7.14767 31.2324H24.2251C24.4364 31.2324 24.5773 31.0564 24.5773 30.8803V27.7113H41.5491V30.8803C41.5491 31.0916 41.7251 31.2324 41.9012 31.2324H59.9294C59.9646 31.2324 59.9998 31.2324 60.035 31.2324C59.2956 45.2113 47.9223 55.986 33.7322 55.986Z"
        fill="#0DB455"></path>
    <path d="M26.056 34.2606H21.7954V43.9789H26.056V34.2606Z" fill="#0DB455"></path>
    <path d="M44.5775 34.2606H40.3169V43.9789H44.5775V34.2606Z" fill="#0DB455"></path>
    <path
        d="M33.2745 30.4931C30.1407 30.4931 27.5703 33.0283 27.5703 36.1973V44.2607H38.9788V36.1973C38.9435 33.0635 36.4083 30.4931 33.2745 30.4931Z"
        fill="#0DB455"></path>
    <path
        d="M33.2745 24.6831C34.5191 24.6831 35.528 23.6741 35.528 22.4296C35.528 21.185 34.5191 20.176 33.2745 20.176C32.0299 20.176 31.021 21.185 31.021 22.4296C31.021 23.6741 32.0299 24.6831 33.2745 24.6831Z"
        fill="#0DB455"></path>
</svg>